<?xml version="1.0" encoding="UTF-8" standalone="no"?>
<svg width="20px" height="20px" viewBox="0 0 20 20" version="1.1" xmlns="http://www.w3.org/2000/svg" xmlns:xlink="http://www.w3.org/1999/xlink" xmlns:sketch="http://www.bohemiancoding.com/sketch/ns">
    <!-- Generator: Sketch 3.2.2 (9983) - http://www.bohemiancoding.com/sketch -->
    <title>0001_dossier </title>
    <desc>Created with Sketch.</desc>
    <defs></defs>
    <g id="Page-1" stroke="none" stroke-width="1" fill="none" fill-rule="evenodd" sketch:type="MSPage">
        <g id="0001_dossier-" sketch:type="MSArtboardGroup" fill="#000000">
            <path d="M2.25,16.9006522 C2.25,18.4066158 3.63931786,19.75 5.18111765,19.75 L17,19.75 C17.4142136,19.75 17.75,19.4142136 17.75,19 L17.75,5.69565217 C17.75,5.28143861 17.4142136,4.94565217 17,4.94565217 L5.59288235,4.94565217 C4.76705425,4.94565217 3.75,4.1619788 3.75,3.59552174 L3.75,2.81252174 C3.75,2.32990346 4.67246837,1.75 5.59288235,1.75 L15,1.75 C15.4142136,1.75 15.75,1.41421356 15.75,1 C15.75,0.585786438 15.4142136,0.25 15,0.25 L5.59288235,0.25 C3.94836232,0.25 2.25,1.31766391 2.25,2.81252174 L2.25,3.59552174 C2.25,5.08839965 4.01144742,6.44565217 5.59288235,6.44565217 L17,6.44565217 L16.25,5.69565217 L16.25,19 L17,18.25 L5.18111765,18.25 C4.45666998,18.25 3.75,17.566694 3.75,16.9006522 L3.75,3.73913043 C3.75,3.32491687 3.41421356,2.98913043 3,2.98913043 C2.58578644,2.98913043 2.25,3.32491687 2.25,3.73913043 L2.25,16.9006522 Z" id="Stroke-3" sketch:type="MSShapeGroup"></path>
        </g>
    </g>
</svg>