<?xml version="1.0" encoding="UTF-8" standalone="no"?>
<svg width="20px" height="20px" viewBox="0 0 20 20" version="1.1" xmlns="http://www.w3.org/2000/svg" xmlns:xlink="http://www.w3.org/1999/xlink" xmlns:sketch="http://www.bohemiancoding.com/sketch/ns">
    <!-- Generator: Sketch 3.2.2 (9983) - http://www.bohemiancoding.com/sketch -->
    <title>0001_dossier </title>
    <desc>Created with Sketch.</desc>
    <defs></defs>
    <g id="Page-1" stroke="none" stroke-width="1" fill="none" fill-rule="evenodd" sketch:type="MSPage">
        <g id="0001_dossier-" sketch:type="MSArtboardGroup">
            <g id="Imported-Layers" sketch:type="MSLayerGroup" transform="translate(0.000000, 2.000000)">
                <path d="M19.416,7.989 L12.246,15.245 L6.385,9.454 C5.922,8.997 5.918,8.252 6.375,7.79 C6.832,7.327 7.577,7.323 8.04,7.78 L13.342,13.019 L19.96,6.321 L14.379,0.806 C13.765,0.199 12.766,0.205 12.16,0.819 L5.541,7.517 C4.934,8.131 4.94,9.13 5.555,9.737 L12.252,16.355 L19.974,8.54 L19.416,7.989" id="Fill-1" fill="#000000" sketch:type="MSShapeGroup"></path>
                <path d="M7.848,0.408 C7.425,0.408 7.001,0.57 6.682,0.893 L0.529,7.119 C-0.105,7.762 -0.099,8.805 0.543,9.44 L6.645,15.452 L7.222,14.868 L1.411,9.144 C0.928,8.666 0.923,7.888 1.401,7.405 C1.642,7.161 1.959,7.039 2.276,7.039 C2.588,7.039 2.901,7.157 3.141,7.394 L10.424,14.591 L10.445,14.569 L5.555,9.737 C4.94,9.13 4.934,8.131 5.541,7.517 L10.569,2.428 L9.002,0.879 C8.683,0.565 8.266,0.408 7.848,0.408" id="Fill-2" fill="#090909" sketch:type="MSShapeGroup"></path>
                <path d="M10.569,2.428 L5.541,7.517 C4.934,8.131 4.94,9.13 5.555,9.737 L10.445,14.569 L10.694,14.309 L5.822,9.494 C5.207,8.887 5.201,7.889 5.808,7.274 L10.587,2.447 L10.569,2.428" id="Fill-3" fill="#000000" sketch:type="MSShapeGroup"></path>
            </g>
        </g>
    </g>
</svg>