<?xml version="1.0" encoding="UTF-8" standalone="no"?>
<svg width="20px" height="20px" viewBox="0 0 20 20" version="1.1" xmlns="http://www.w3.org/2000/svg" xmlns:xlink="http://www.w3.org/1999/xlink" xmlns:sketch="http://www.bohemiancoding.com/sketch/ns">
    <!-- Generator: Sketch 3.2.2 (9983) - http://www.bohemiancoding.com/sketch -->
    <title>0005_search</title>
    <desc>Created with Sketch.</desc>
    <defs></defs>
    <g id="Page-1" stroke="none" stroke-width="1" fill="none" fill-rule="evenodd" sketch:type="MSPage">
        <g id="0005_search" sketch:type="MSArtboardGroup" fill="#000000">
            <g id="Imported-Layers" sketch:type="MSLayerGroup" transform="translate(0.000000, 1.000000)">
                <path d="M7.833,1 L7.833,1 C8.452,1 9.069,1.094 9.668,1.279 C11.251,1.769 12.549,2.846 13.322,4.312 C14.095,5.778 14.251,7.457 13.761,9.04 C12.952,11.655 10.571,13.412 7.837,13.412 C7.217,13.412 6.599,13.318 6,13.133 C4.417,12.643 3.119,11.567 2.346,10.101 C1.573,8.635 1.417,6.956 1.907,5.373 C2.716,2.757 5.097,1 7.833,1 M7.832,0 C4.757,0 1.908,1.985 0.951,5.077 C-0.224,8.878 1.903,12.913 5.705,14.088 C6.414,14.308 7.131,14.412 7.837,14.412 C10.912,14.412 13.76,12.427 14.717,9.335 C15.893,5.535 13.765,1.5 9.963,0.324 C9.254,0.104 8.538,0 7.832,0" id="Fill-1" sketch:type="MSShapeGroup"></path>
                <path d="M18.969,18.841 C18.841,18.841 18.713,18.792 18.615,18.694 L12.363,12.442 C12.168,12.247 12.168,11.931 12.363,11.735 C12.559,11.54 12.875,11.54 13.07,11.735 L19.322,17.987 C19.518,18.183 19.518,18.499 19.322,18.694 C19.225,18.792 19.097,18.841 18.969,18.841" id="Fill-2" sketch:type="MSShapeGroup"></path>
            </g>
        </g>
    </g>
</svg>