<?xml version="1.0" encoding="UTF-8" standalone="no"?>
<svg width="20px" height="20px" viewBox="0 0 20 20" version="1.1" xmlns="http://www.w3.org/2000/svg" xmlns:xlink="http://www.w3.org/1999/xlink" xmlns:sketch="http://www.bohemiancoding.com/sketch/ns">
    <!-- Generator: Sketch 3.2.2 (9983) - http://www.bohemiancoding.com/sketch -->
    <title>0005_search</title>
    <desc>Created with Sketch.</desc>
    <defs></defs>
    <g id="Page-1" stroke="none" stroke-width="1" fill="none" fill-rule="evenodd" sketch:type="MSPage">
        <g id="0005_search" sketch:type="MSArtboardGroup" fill="#000000">
            <path d="M12.7959102,9.06220642 C11.8741689,12.0395075 8.71080359,13.706565 5.7306522,12.7850906 C2.75034607,11.8641312 1.08224065,8.70419503 2.00393545,5.72704398 C2.92601866,2.74959782 6.08929246,1.08265863 9.06974577,2.00379651 C12.0497611,2.92522879 13.7179254,6.08540947 12.7959102,9.06220642 Z M0.571053415,5.28336722 C-0.595808406,9.05242819 1.51587518,13.0526462 5.28766853,14.2181871 C9.05873871,15.3842166 13.062065,13.2745092 14.2287832,9.5059124 C15.3960401,5.73733369 13.2843277,1.73689285 9.51275862,0.570709071 C5.74128522,-0.59490121 1.73820388,1.51458838 0.571053415,5.28336722 Z" id="Stroke-5" sketch:type="MSShapeGroup"></path>
            <path d="M17.960327,19.1826639 C18.2579246,19.4707759 18.732736,19.4630864 19.0208481,19.1654888 C19.3089601,18.8678912 19.3012706,18.3930797 19.003673,18.1049677 L12.521673,11.829573 C12.2240754,11.5414609 11.749264,11.5491505 11.4611519,11.846748 C11.1730399,12.1443456 11.1807294,12.6191571 11.478327,12.9072691 L17.960327,19.1826639 Z" id="Stroke-4" sketch:type="MSShapeGroup"></path>
        </g>
    </g>
</svg>