<?xml version="1.0" encoding="UTF-8" standalone="no"?>
<svg width="20px" height="20px" viewBox="0 0 20 20" version="1.1" xmlns="http://www.w3.org/2000/svg" xmlns:xlink="http://www.w3.org/1999/xlink" xmlns:sketch="http://www.bohemiancoding.com/sketch/ns">
    <!-- Generator: Sketch 3.2.2 (9983) - http://www.bohemiancoding.com/sketch -->
    <title>0008_filter</title>
    <desc>Created with Sketch.</desc>
    <defs></defs>
    <g id="Page-1" stroke="none" stroke-width="1" fill="none" fill-rule="evenodd" sketch:type="MSPage">
        <g id="0008_filter" sketch:type="MSArtboardGroup" fill="#000000">
            <g id="Imported-Layers" sketch:type="MSLayerGroup" transform="translate(3.000000, 1.000000)">
                <path d="M12.843,1.042 L7.541,7.06 L2.238,1.042 L12.843,1.042 M13.061,0.042 L2.02,0.042 C0.919,0.042 0.618,0.716 1.35,1.547 L7.541,8.573 L13.731,1.547 C14.467,0.711 14.163,0.042 13.061,0.042" id="Fill-1" sketch:type="MSShapeGroup"></path>
                <path d="M7.541,18.729 C7.265,18.729 7.042,18.506 7.042,18.229 L7.042,7.542 C7.042,7.266 7.265,7.042 7.541,7.042 C7.818,7.042 8.041,7.266 8.041,7.542 L8.041,18.229 C8.041,18.506 7.818,18.729 7.541,18.729" id="Fill-2" sketch:type="MSShapeGroup"></path>
            </g>
        </g>
    </g>
</svg>