<?xml version="1.0" encoding="UTF-8" standalone="no"?>
<svg width="20px" height="20px" viewBox="0 0 20 20" version="1.1" xmlns="http://www.w3.org/2000/svg" xmlns:xlink="http://www.w3.org/1999/xlink" xmlns:sketch="http://www.bohemiancoding.com/sketch/ns">
    <!-- Generator: Sketch 3.2.2 (9983) - http://www.bohemiancoding.com/sketch -->
    <title>0008_filter</title>
    <desc>Created with Sketch.</desc>
    <defs></defs>
    <g id="Page-1" stroke="none" stroke-width="1" fill="none" fill-rule="evenodd" sketch:type="MSPage">
        <g id="0008_filter" sketch:type="MSArtboardGroup" fill="#000000">
            <path d="M5.00585866,1.75 L14.9941413,1.75 C15.4662442,1.75 15.4472812,1.71000118 15.1525478,2.06920756 L10.6878422,7.51056753 C10.2900148,7.99541965 9.70914855,7.99439996 9.31215784,7.51056753 L4.84745222,2.06920756 C4.54980534,1.70645043 4.52901566,1.75 5.00585866,1.75 Z M8.15254778,8.46204244 C9.14882976,9.67626111 10.8487217,9.67924522 11.8474522,8.46204244 L16.3121578,3.02068247 C17.4106971,1.68183775 16.7318786,0.25 14.9941413,0.25 L5.00585866,0.25 C3.26579076,0.25 2.58485082,1.67641178 3.68784216,3.02068247 L8.15254778,8.46204244 Z" id="v-2" sketch:type="MSShapeGroup"></path>
            <path d="M9.25,18.96875 C9.25,19.3829636 9.58578644,19.71875 10,19.71875 C10.4142136,19.71875 10.75,19.3829636 10.75,18.96875 L10.75,9 C10.75,8.58578644 10.4142136,8.25 10,8.25 C9.58578644,8.25 9.25,8.58578644 9.25,9 L9.25,18.96875 Z" id="Stroke-5" sketch:type="MSShapeGroup"></path>
        </g>
    </g>
</svg>