<?xml version="1.0" encoding="UTF-8" standalone="no"?>
<svg width="20px" height="20px" viewBox="0 0 20 20" version="1.1" xmlns="http://www.w3.org/2000/svg" xmlns:xlink="http://www.w3.org/1999/xlink" xmlns:sketch="http://www.bohemiancoding.com/sketch/ns">
    <!-- Generator: Sketch 3.2.2 (9983) - http://www.bohemiancoding.com/sketch -->
    <title>0011_sort</title>
    <desc>Created with Sketch.</desc>
    <defs></defs>
    <g id="Page-1" stroke="none" stroke-width="1" fill="none" fill-rule="evenodd" sketch:type="MSPage">
        <g id="0011_sort" sketch:type="MSArtboardGroup" fill="#000000">
            <g id="Imported-Layers" sketch:type="MSLayerGroup">
                <path d="M5.502,14.977 C5.222,14.977 4.994,14.749 4.994,14.469 L4.994,1.484 C4.994,1.204 5.222,0.977 5.502,0.977 C5.782,0.977 6.01,1.204 6.01,1.484 L6.01,14.469 C6.01,14.749 5.782,14.977 5.502,14.977" id="Fill-1" sketch:type="MSShapeGroup"></path>
                <path d="M5.498,19.504 C5.379,19.504 5.261,19.462 5.166,19.378 L0.666,15.378 C0.46,15.194 0.44,14.878 0.624,14.672 C0.807,14.465 1.124,14.448 1.33,14.63 L5.498,18.335 L9.666,14.63 C9.871,14.448 10.188,14.465 10.372,14.672 C10.556,14.878 10.536,15.194 10.33,15.378 L5.83,19.378 C5.735,19.462 5.617,19.504 5.498,19.504" id="Fill-2" sketch:type="MSShapeGroup"></path>
                <path d="M14.502,19.052 C14.21,19.052 13.973,18.814 13.973,18.523 L13.973,6.5 C13.973,6.208 14.21,5.971 14.502,5.971 C14.794,5.971 15.031,6.208 15.031,6.5 L15.031,18.523 C15.031,18.814 14.794,19.052 14.502,19.052" id="Fill-3" sketch:type="MSShapeGroup"></path>
                <path d="M19.002,5.5 C18.884,5.5 18.765,5.458 18.67,5.374 L14.502,1.669 L10.334,5.374 C10.128,5.555 9.81,5.538 9.628,5.332 C9.444,5.126 9.464,4.81 9.67,4.626 L14.17,0.626 C14.359,0.458 14.644,0.458 14.834,0.626 L19.334,4.626 C19.54,4.81 19.56,5.126 19.376,5.332 C19.277,5.443 19.14,5.5 19.002,5.5" id="Fill-4" sketch:type="MSShapeGroup"></path>
            </g>
        </g>
    </g>
</svg>