<?xml version="1.0" encoding="UTF-8" standalone="no"?>
<svg width="20px" height="20px" viewBox="0 0 20 20" version="1.1" xmlns="http://www.w3.org/2000/svg" xmlns:xlink="http://www.w3.org/1999/xlink" xmlns:sketch="http://www.bohemiancoding.com/sketch/ns">
    <!-- Generator: Sketch 3.2.2 (9983) - http://www.bohemiancoding.com/sketch -->
    <title>0011_sort</title>
    <desc>Created with Sketch.</desc>
    <defs></defs>
    <g id="Page-1" stroke="none" stroke-width="1" fill="none" fill-rule="evenodd" sketch:type="MSPage">
        <g id="0011_sort" sketch:type="MSArtboardGroup" fill="#000000">
            <path d="M6.5,1 C6.5,0.585786438 6.16421356,0.25 5.75,0.25 C5.33578644,0.25 5,0.585786438 5,1 L5,13.592021 C5,14.0062346 5.33578644,14.342021 5.75,14.342021 C6.16421356,14.342021 6.5,14.0062346 6.5,13.592021 L6.5,1 Z" id="Stroke-8" sketch:type="MSShapeGroup"></path>
            <path d="M5.00149864,18.4394296 L5.9980444,18.4394564 L1.49828794,14.4394564 C1.18870826,14.1642596 0.714653235,14.1921324 0.439456402,14.5017121 C0.16425957,14.8112917 0.192132375,15.2853468 0.501712056,15.5605436 L5.00146851,19.5605436 C5.28562624,19.8131419 5.71384296,19.8131534 5.99801427,19.5605704 L10.4982578,15.5605704 C10.8078523,15.2853902 10.8357506,14.8113367 10.5605704,14.5017422 C10.2853902,14.1921477 9.81133666,14.1642494 9.50174219,14.4394296 L5.00149864,18.4394296 Z" id="Stroke-5" sketch:type="MSShapeGroup"></path>
            <path d="M14,18.738825 C14,19.1530386 14.3357864,19.488825 14.75,19.488825 C15.1642136,19.488825 15.5,19.1530386 15.5,18.738825 L15.5,7.9970904 C15.5,7.58287684 15.1642136,7.2470904 14.75,7.2470904 C14.3357864,7.2470904 14,7.58287684 14,7.9970904 L14,18.738825 Z" id="Stroke-6" sketch:type="MSShapeGroup"></path>
            <path d="M14.9980444,2.5605436 L14.0014986,2.56057038 L18.5017422,6.56057038 C18.8113367,6.83575057 19.2853902,6.80785229 19.5605704,6.49825781 C19.8357506,6.18866334 19.8078523,5.71460981 19.4982578,5.43942962 L14.9980143,1.43942962 C14.713843,1.18684658 14.2856262,1.18685808 14.0014685,1.4394564 L9.50171206,5.4394564 C9.19213238,5.71465323 9.16425957,6.18870826 9.4394564,6.49828794 C9.71465323,6.80786762 10.1887083,6.83574043 10.4982879,6.5605436 L14.9980444,2.5605436 Z" id="Stroke-7" sketch:type="MSShapeGroup"></path>
        </g>
    </g>
</svg>