<?xml version="1.0" encoding="UTF-8" standalone="no"?>
<svg width="20px" height="20px" viewBox="0 0 20 20" version="1.1" xmlns="http://www.w3.org/2000/svg" xmlns:xlink="http://www.w3.org/1999/xlink" xmlns:sketch="http://www.bohemiancoding.com/sketch/ns">
    <!-- Generator: Sketch 3.2.2 (9983) - http://www.bohemiancoding.com/sketch -->
    <title>0014_share</title>
    <desc>Created with Sketch.</desc>
    <defs></defs>
    <g id="Page-1" stroke="none" stroke-width="1" fill="none" fill-rule="evenodd" sketch:type="MSPage">
        <g id="0014_share" sketch:type="MSArtboardGroup" fill="#000000">
            <g id="Imported-Layers" sketch:type="MSLayerGroup" transform="translate(3.000000, 0.000000)">
                <path d="M12.112,19.622 L3.093,19.622 C1.486,19.622 0.18,18.314 0.18,16.707 L0.18,10.995 C0.18,9.389 1.486,8.081 3.093,8.081 C3.369,8.081 3.593,8.305 3.593,8.581 C3.593,8.857 3.369,9.081 3.093,9.081 C2.038,9.081 1.18,9.94 1.18,10.995 L1.18,16.707 C1.18,17.763 2.038,18.622 3.093,18.622 L12.112,18.622 C13.167,18.622 14.025,17.763 14.025,16.707 L14.025,10.995 C14.025,9.94 13.167,9.081 12.112,9.081 C11.836,9.081 11.612,8.857 11.612,8.581 C11.612,8.305 11.836,8.081 12.112,8.081 C13.719,8.081 15.025,9.389 15.025,10.995 L15.025,16.707 C15.025,18.314 13.719,19.622 12.112,19.622" id="Fill-1" sketch:type="MSShapeGroup"></path>
                <path d="M7.602,15.838 C7.326,15.838 7.103,15.614 7.103,15.338 L7.103,5.371 C7.103,5.095 7.326,4.871 7.602,4.871 C7.879,4.871 8.102,5.095 8.102,5.371 L8.102,15.338 C8.102,15.614 7.879,15.838 7.602,15.838" id="Fill-2" sketch:type="MSShapeGroup"></path>
                <path d="M12.102,5.378 C11.984,5.378 11.865,5.336 11.77,5.252 L7.602,1.547 L3.435,5.252 C3.229,5.434 2.912,5.417 2.728,5.21 C2.545,5.004 2.564,4.687 2.77,4.504 L7.27,0.504 C7.46,0.336 7.745,0.336 7.935,0.504 L12.435,4.504 C12.641,4.687 12.66,5.004 12.477,5.21 C12.378,5.321 12.24,5.378 12.102,5.378" id="Fill-3" sketch:type="MSShapeGroup"></path>
            </g>
        </g>
    </g>
</svg>