<?xml version="1.0" encoding="UTF-8" standalone="no"?>
<svg width="20px" height="20px" viewBox="0 0 20 20" version="1.1" xmlns="http://www.w3.org/2000/svg" xmlns:xlink="http://www.w3.org/1999/xlink" xmlns:sketch="http://www.bohemiancoding.com/sketch/ns">
    <!-- Generator: Sketch 3.2.2 (9983) - http://www.bohemiancoding.com/sketch -->
    <title>0014_share</title>
    <desc>Created with Sketch.</desc>
    <defs></defs>
    <g id="Page-1" stroke="none" stroke-width="1" fill="none" fill-rule="evenodd" sketch:type="MSPage">
        <g id="0014_share" sketch:type="MSArtboardGroup" fill="#000000">
            <path d="M15.8850327,10.2470867 C16.1202864,10.5032598 16.25,10.8246691 16.25,11.1625277 L16.25,16.2775532 C16.25,17.0449595 15.5743021,17.6904255 14.7358247,17.6904255 L5.26381443,17.6904255 C4.42544042,17.6904255 3.75,17.0450636 3.75,16.2775532 L3.75,11.1625277 C3.75,10.3951213 4.42533703,9.75 5.26381443,9.75 C5.678028,9.75 6.01381443,9.41421356 6.01381443,9 C6.01381443,8.58578644 5.678028,8.25 5.26381443,8.25 C3.61187946,8.25 2.25,9.55094674 2.25,11.1625277 L2.25,16.2775532 C2.25,17.8891608 3.61191292,19.1904255 5.26381443,19.1904255 L14.7358247,19.1904255 C16.3877597,19.1904255 17.75,17.8891341 17.75,16.2775532 L17.75,11.1625277 C17.75,10.4422045 17.4749967,9.76079111 16.9898435,9.23249657 C16.4201737,8.61216988 15.604982,8.25 14.7358247,8.25 C14.3216112,8.25 13.9858247,8.58578644 13.9858247,9 C13.9858247,9.41421356 14.3216112,9.75 14.7358247,9.75 C15.1827376,9.75 15.5979393,9.93446403 15.8850327,10.2470867 Z" id="Stroke-6" sketch:type="MSShapeGroup"></path>
            <path d="M10.75,5.82588252 C10.75,5.41166896 10.4142136,5.07588252 10,5.07588252 C9.58578644,5.07588252 9.25,5.41166896 9.25,5.82588252 L9.25,14.7510638 C9.25,15.1652774 9.58578644,15.5010638 10,15.5010638 C10.4142136,15.5010638 10.75,15.1652774 10.75,14.7510638 L10.75,5.82588252 Z" id="Stroke-4" sketch:type="MSShapeGroup"></path>
            <path d="M10.71569,2.01292079 L9.81733494,1.98756548 L14.3553097,5.58756548 C14.6798131,5.84499583 15.1515637,5.79062233 15.408994,5.46611888 C15.6664244,5.14161543 15.6120509,4.66986487 15.2875475,4.41243452 L10.7495727,0.812434524 L10.3098822,0.463625657 L9.85121765,0.787079213 L4.74633526,4.38707921 C4.40782845,4.62579666 4.3269332,5.09372937 4.56565064,5.43223617 C4.80436809,5.77074298 5.2723008,5.85163823 5.6108076,5.61292079 L10.71569,2.01292079 Z" id="Stroke-5" sketch:type="MSShapeGroup"></path>
        </g>
    </g>
</svg>